<svg width="1024" height="1024" xmlns="http://www.w3.org/2000/svg" xml:space="preserve" enable-background="new 0 0 1024 1024" version="1.1">

 <g>
  <title>Layer 1</title>
  <path stroke-opacity="0" id="svg_1" d="m621.49939,726.92328c-10.90875,3.19317 -21.81854,4.37793 -32.57672,6.30298c-22.69019,4.06018 -45.44483,7.75885 -68.1665,11.64447c-26.14344,4.47082 -52.27997,8.98175 -78.41892,13.47882c-6.86231,1.18054 -13.74908,2.23926 -20.57724,3.59308c-10.71689,2.12475 -19.73431,-6.67725 -17.67737,-17.34784c0.37418,-1.94116 0.54163,-3.95099 0.5473,-5.92981c0.04486,-15.66364 -0.00323,-31.32752 0.03574,-46.99121c0.07437,-29.87354 -9.82764,-55.93311 -29.44977,-78.46222c-14.63122,-16.79877 -29.32589,-33.51197 -40.63745,-52.9516c-14.41119,-24.76666 -24.28427,-51.12158 -27.63293,-79.48874c-5.40665,-45.80078 1.76355,-89.68396 24.96652,-129.91739c32.46298,-56.28995 80.44034,-92.09775 144.32611,-105.79384c14.15036,-3.0336 28.60184,-4.5301 43.01068,-4.23127c46.55457,0.96554 88.88843,15.00289 125.9809,43.39627c41.3291,31.63635 67.62915,73.23028 79.73486,123.75793c3.76111,15.69806 5.76092,31.77933 5.22101,47.88846c-1.52167,45.4043 -15.61664,86.62393 -42.21881,123.6113c-10.62079,14.76709 -23.77204,27.37652 -34.55115,41.97326c-12.505,16.9339 -20.38263,35.57721 -22.21088,56.76392c-0.94684,10.97253 -0.98437,21.81909 -0.10687,32.79742c0.54498,6.81757 -2.49512,12.64698 -9.59851,15.90601m62.68463,-312.81293c-1.82782,-7.60165 -4.09741,-15.05774 -7.06933,-22.30243c-11.61518,-28.3147 -29.43079,-51.97421 -53.01081,-71.44803c-37.97467,-31.36184 -81.45727,-44.37307 -130.14142,-37.69796c-43.06588,5.90484 -78.47238,26.90789 -106.20001,60.01733c-30.42056,36.32501 -44.98791,78.13846 -40.53628,126.02173c2.07806,22.35242 8.47268,43.21887 18.62603,63.11139c11.01618,21.58307 27.41431,39.13409 42.66138,57.56451c23.09021,27.91101 34.63986,60.17719 35.7713,96.23212c0.33963,10.82287 0.09619,21.66479 0.06937,32.49786c-0.00806,3.2464 0.51294,4.8501 4.64236,3.91632c7.09384,-1.60412 14.37387,-2.40649 21.59195,-3.43127c4.26822,-0.60596 6.52481,-2.44367 6.05417,-7.21021c-1.65735,-16.78503 -0.17126,-33.617 -0.49826,-50.42871c-0.59186,-30.42627 -0.0553,-60.86487 -3.32535,-91.2221c-2.1156,-19.63977 -5.21905,-39.06824 -9.06375,-58.41556c-0.52862,-2.66007 -1.90988,-4.09262 -4.17407,-5.09195c-15.22607,-6.72055 -26.20276,-18.09448 -34.37909,-32.22839c-6.04498,-10.44965 -11.0173,-21.78361 -10.25241,-33.93778c1.06592,-16.93701 9.23627,-29.95019 28.70709,-33.04489c14.27072,-2.26819 31.01846,4.94247 36.37921,19.95859c5.10718,14.30578 2.0105,27.84375 -4.116,41.01126c-1.99633,4.29062 -4.39334,8.3948 -6.69363,12.74798c9.87274,4.76682 18.24756,2.64856 25.95651,-3.47006c5.36063,-4.25476 5.27414,-4.59289 1.8093,-10.65854c-6.10556,-10.68851 -10.78003,-21.74435 -8.31622,-34.50714c1.41952,-7.35321 3.85855,-14.38296 10.14102,-18.88525c10.05758,-7.20783 21.17309,-7.79361 32.15033,-2.53751c10.70495,5.12573 14.70611,14.75858 15.37646,26.11377c0.57227,9.69397 -2.99426,18.27271 -7.19195,26.64008c-1.09186,2.17648 -1.88562,3.85177 0.48492,5.56955c6.93701,5.02685 14.72699,7.72943 23.96643,9.25268c-6.01807,-10.32831 -9.97601,-20.52395 -11.5545,-31.47027c-2.28461,-15.84281 4.93921,-33.05512 21.69305,-38.24485c12.909,-3.99871 25.31476,-2.52484 35.40802,6.96134c10.03003,9.42682 12.61707,21.73007 9.52747,34.81347c-5.91254,25.03745 -19.94001,43.97028 -43.56812,55.13214c-2.28564,1.07975 -3.40613,2.41968 -3.99743,5.073c-3.14118,14.09595 -5.08405,28.3545 -6.91785,42.66388c-3.21368,25.07593 -4.99378,50.21625 -4.86414,75.49549c0.02307,4.49884 0.07514,9.00769 -0.17505,13.49585c-1.00262,17.98181 -0.93188,35.97314 -0.64447,53.96734c0.0987,6.17627 1.58069,7.24292 7.58588,6.09259c6.50958,-1.24689 13.01202,-2.79767 19.58942,-3.33118c4.50927,-0.36578 5.13781,-2.43347 4.99755,-6.09472c-0.3507,-9.15387 0.53821,-18.2143 1.84156,-27.28955c3.87292,-26.96784 14.06525,-51.1839 31.06531,-72.45557c14.93597,-18.68896 31.50195,-36.09497 43.23986,-57.24841c12.20765,-22 19.69446,-45.46185 21.64222,-70.42948c1.31945,-16.91381 0.18017,-33.88446 -4.28803,-51.26846m-155.48193,161.59705c0.73126,-7.59381 1.22961,-15.21888 2.24182,-22.77509c2.17865,-16.26367 5.15997,-32.39587 8.88812,-48.37741c0.56336,-2.41479 0.16785,-3.53726 -2.18927,-4.5701c-5.48981,-2.40548 -10.76959,-5.27029 -15.59527,-8.87353c-1.46936,-1.0972 -2.89319,-1.91474 -4.3172,-0.13089c-5.823,7.29455 -13.13538,12.5935 -21.79419,15.8554c0.1791,1.79316 0.16644,3.14148 0.46322,4.41791c5.15491,22.16867 8.0022,44.71182 9.66382,67.33695c1.39862,19.0437 2.42404,38.14959 2.31372,57.28564c-0.13354,23.15943 -0.04696,46.32025 0.00647,69.48035c0.00437,1.89099 -0.71246,4.0235 1.30765,5.8681c3.90649,-0.57599 7.9823,-1.18555 12.06085,-1.77575c3.49097,-0.50525 4.95685,-2.21247 4.97663,-6.02143c0.21942,-42.26404 -1.2688,-84.55743 1.97363,-127.72015m58.12237,-115.00739c3.0362,-5.18014 5.09351,-10.73977 6.40851,-16.58386c0.90918,-4.04037 -0.64593,-7.0842 -3.88251,-9.41516c-2.79559,-2.0134 -5.73358,-1.81308 -8.3117,0.13242c-2.98004,2.2488 -4.271,5.34921 -3.32141,9.19644c1.27545,5.16748 3.28015,10.06152 5.58105,14.82507c0.56146,1.16229 0.70227,3.63074 3.52606,1.84509m-130.21582,-15.62063c0.01361,-0.66575 0.04334,-1.33161 0.03833,-1.9972c-0.04672,-6.2319 -3.16318,-9.94522 -8.11099,-9.67276c-4.68976,0.25827 -7.93515,4.35584 -7.06415,10.09324c1.01645,6.69574 4.137,12.67242 7.70459,19.05038c3.85404,-5.59683 5.66779,-11.09482 7.43222,-17.47366m58.50019,-7.68094c-0.09583,2.25927 -0.03949,4.47332 1.80255,6.28421c2.47076,-1.65625 1.89197,-4.09662 1.52099,-6.1897c-0.3161,-1.78339 -1.59643,-2.46564 -3.32354,-0.09451z" fill="#00a8e1"/>
  <path stroke-opacity="0" id="svg_2" d="m570.5918,877.6496c-40.23615,31.70208 -115.68033,25.69757 -135.57676,-47.28131c7.8902,-2.3349 16.06837,-3.24701 24.12006,-4.66187c20.54209,-3.60956 41.12109,-7.00952 61.68771,-10.47925c24.97223,-4.21301 49.94355,-8.43139 74.92279,-12.60235c6.36298,-1.06244 12.58716,-2.9375 19.12177,-3.01703c9.89459,-0.12055 15.21875,3.78686 16.40125,12.25769c1.23913,8.87646 -4.25678,17.33111 -12.79383,19.34869c-5.15527,1.21833 -10.36139,2.28864 -15.59704,3.07837c-4.21015,0.63495 -6.47223,2.41718 -7.77076,6.81207c-4.29357,14.53217 -12.34094,26.76264 -24.51519,36.54499z" fill="#00a8e1"/>
  <path stroke-opacity="0" id="svg_3" d="m426.526,812.79407c-5.9317,0.78125 -11.5065,2.55737 -16.53915,-1.7392c-5.49106,-4.68774 -7.45941,-10.56006 -5.97882,-17.43713c1.57919,-7.33484 6.70327,-11.5091 13.80075,-12.74427c28.06207,-4.88372 56.16977,-9.50451 84.25497,-14.25604c22.37705,-3.7857 44.74802,-7.60748 67.11777,-11.4364c14.36804,-2.45935 28.70618,-5.10303 43.10101,-7.39209c9.2016,-1.46313 16.88403,3.18506 18.80622,10.83753c2.35528,9.37719 -2.10572,17.73345 -11.67414,20.69543c-10.31171,3.1922 -21.13513,4.01935 -31.72223,5.93134c-20.38556,3.68157 -40.83954,6.98419 -61.26416,10.4497c-24.8345,4.21369 -49.66873,8.42865 -74.50137,12.6532c-8.33194,1.41736 -16.6586,2.86572 -25.40085,4.43793z" fill="#00a8e1"/>
 </g>
</svg>